<svg viewBox="0 0 252 200" xmlns="http://www.w3.org/2000/svg">
  <rect width="100%" height="100%" fill="#007a87"/>
  <path d="M131.8,88.7L129.6,88.4L128.3,85.4L126.3,85.8L126,83.6L123.9,84.2L121.8,84.8L119.8,83.1L120.8,81.1L118.8,80.5L116.4,80.8L115.7,78.7L117.8,76.8L120.6,75.8L124,74.5L126.4,73.6L130,73L132,71.8L134.1,70.2L136.4,69.5L137.8,67.7L140.8,66.9L143,66L144.9,68.1L145.2,70.8L146.8,72.3L148.4,75.1L147.6,77.7L145.7,79L144.2,81.9L142.3,83.5L140,83.6L136.1,86.4L133.8,87L131.8,88.7Z" fill="#e8e8e8" stroke="#999" stroke-width="1"/>
  <path d="M184.2,63.3L183.2,60.5L183.6,57.7L183.9,53.9L186.2,51.2L183.1,49.3L185.1,47.3L184.4,44.7L185.5,42.4L187.3,43.5L188.4,45.3L189.9,47.1L190.8,49.2L193.2,49.6L195.5,48.6L197.5,48.5L201,49.8L203.6,50.7L206,51.8L207.1,53.9L208,55.9L209.8,56.8L208.8,59.3L205.8,60.3L204.6,57.9L202.6,57.6L200.4,56.1L198,57.6L196.1,58.9L193.7,59L191.2,60.1L189.9,62.8L188,63.5L186,63.1L184.2,63.3Z" fill="#e8e8e8" stroke="#999" stroke-width="1"/>
  <path d="M184.4,44.7L185.1,47.3L183.1,49.3L186.2,51.2L184.1,53.4L183.4,56.3L183.2,60.5L181.1,62L178.9,62.6L177.5,60.1L176.4,57.4L177,55L176.5,52.9L178.5,52.1L176.8,50.9L175,49.2L176.1,46.2L176.9,44.3L177.4,41.7L179.2,40.7L181.4,40.3L182.4,42.7L183.7,44.4L184.4,44.7Z" fill="#e8e8e8" stroke="#999" stroke-width="1"/>
  <path d="M187.2,42.2L185.5,43.6L183.1,43.9L181.7,42.2L180,40.4L177.9,41.2L176.7,42.9L176.1,46.2L174.4,48.1L172.1,48.4L171.4,45.6L172.3,42.5L170.8,41.1L168.9,39.8L167,38.5L165,38L163.4,35.9L160.5,33.1L156.6,32.6L154.2,32.8L153.3,30.5L150.5,30.2L150.4,27.8L151,25.7L152.3,23.9L155.6,22L159.1,20L161.8,21.6L164.8,23.2L168,25.5L170.1,27.2L173.8,30.6L177,31.8L184.3,31.1L185.8,34.6L185.6,36.6L186.3,38.7L187,41.3L187.2,42.2Z" fill="#e8e8e8" stroke="#999" stroke-width="1"/>
  <path d="M146.7,53.1L145,51.3L142.4,50L139.5,48.8L140.2,45.5L138.2,45.8L135.5,45.2L136.3,42.6L137.2,40.2L139.7,39.7L143.1,39.8L142.7,37.6L143.2,34.8L142.6,31.8L145,31.3L147.9,31.7L148.9,29.8L151.4,30.8L153.4,30L153.2,32L154.8,33.3L158.8,32.5L163.5,34.8L163.9,37.3L162.2,39.7L159.6,40.4L158.4,44L159.7,46.4L161.1,49.4L157.6,51.2L155.7,51.9L153.8,52.7L152.3,54.1L150.9,52.5L148.4,51.6L146.7,53.1Z" fill="#e8e8e8" stroke="#999" stroke-width="1"/>
  <path d="M151.5,72.5L153.1,73.9L155.1,75L157.2,77L158.6,78.9L156.8,80.8L156.1,83.1L155.1,85.4L156.1,87.6L157.8,89.8L157.6,93.6L157,96.5L154.8,95.9L152.6,94.5L150.6,93.9L148.3,94.7L148,96.9L143,98.8L139.6,97.8L137.6,98.1L136.1,99.5L132.7,99.2L131.1,97.9L129.6,94.4L130.7,90.2L133.3,87L136.1,86.4L138.4,84.2L142.3,83.5L144.2,81.9L145,79.5L147.6,77.7L148.9,75.8L150.4,73.6L151.5,72.5Z" fill="#e8e8e8" stroke="#999" stroke-width="1"/>
  <path d="M159.3,153.6L157.1,150.8L155.4,145L157.7,144.7L161.2,143.2L163.1,141.5L164.5,139.2L166.7,138.3L167.8,136.3L169.9,135.4L172.6,134.8L175,132.9L173.3,131.4L176.5,128.6L174.8,125.3L173.7,123.5L172.6,121.2L169.8,119.6L171.1,117.2L169.8,115.4L170,113.1L173.2,111.9L175.4,113L177.6,113.2L180.6,112.1L183.4,111.6L185.6,110.6L187.5,109.3L189.5,109.1L191.7,109.6L193.5,110.7L195.1,112L196.5,113.6L197.6,115.4L200.3,116.4L202.8,118.1L204.1,120.3L205,122.1L203.1,123.2L204.4,125.3L205.4,127.5L204.9,129.6L204.3,131.9L200.5,134L199,135.6L198.8,138.7L200.4,140.9L200.3,142.9L197.2,145.3L195.5,147.1L194.6,149.6L193.6,151.8L191,151.9L188.8,151.6L186.7,151.7L181.6,152.2L179.6,153.3L177.2,153.9L174.9,155.4L175.8,157.2L173.6,158.1L161.3,157.8L159.3,153.6Z" fill="#e8e8e8" stroke="#999" stroke-width="1"/>
  <path d="M186.2,69.6L184.5,67.3L183.7,65.4L184.2,63.3L186.9,62.7L189,62L191.2,60.1L193.4,59.3L196.1,58.9L198.2,58.7L200.4,56.1L202.3,57L204.6,57.9L205.8,60.3L203.7,60.8L202,62.2L199.1,64.7L198.6,66.7L201.4,68.1L201.2,71L200.1,73L197.7,75.8L195.5,76.8L193.3,75.6L191.1,75.1L191.4,72.2L189.7,70.5L186.9,69.5L186.2,69.6Z" fill="#e8e8e8" stroke="#999" stroke-width="1"/>
  <path d="M186.2,69.6L188.4,70.5L190.8,71.1L191.1,74.6L193,75.5L194,78.9L196.6,80.3L197.1,82.4L199.9,83.5L201.6,85.4L203,86.9L202.5,89.1L200.2,89.5L197.3,90.2L195.4,90.9L193.2,91.3L191.3,92L188.4,92.6L186.4,92.6L183.1,95.4L181,96.8L178.4,98.1L175.7,99.2L172.4,99.5L172.4,97.1L172.2,94.8L170.9,93L171.5,91L172.9,89L175.5,87.2L175.5,83.3L175,80.8L176.2,78L178.7,76.6L180.4,74.9L182.4,75L184.3,76.5L185.7,75L185.2,72.4L185.5,70L186.2,69.6Z" fill="#e8e8e8" stroke="#999" stroke-width="1"/>
  <path d="M177.5,60.1L178.9,62.6L181.1,62L183.3,61.6L185.1,64.6L185.4,66.6L184.8,68.9L185.2,70.9L185.7,75L184.3,76.5L182.4,75L180.4,74.9L178.7,76.6L176.2,78L174.5,79.6L172.1,79.5L169.5,78.7L172.4,71.8L174.6,72.6L174.1,70L174.2,67.1L173.6,64.6L174.3,62.6L177.5,60.1Z" fill="#e8e8e8" stroke="#999" stroke-width="1"/>
  <path d="M106.8,109.4L107.2,107.3L105.5,105L104,106.4L101.9,105.7L100.4,104.2L97.8,102.7L97.1,100.7L99.2,99.8L99.5,97.5L99.3,94.2L97.8,92.8L98.9,90.7L97.7,88.9L99.7,89.2L106.8,91.1L105.5,93.6L107.5,95.1L110.1,95L111.1,96.8L113.4,98.3L115.5,97.9L117,100.5L115.9,102.7L114.1,104L112,105.7L108.5,107.6L106.8,109.4Z" fill="#e8e8e8" stroke="#999" stroke-width="1"/>
  <path d="M116.4,101.9L117.1,98.1L116.8,96.1L117,93.6L118,91.4L119,89.2L120.9,87.6L120.7,85.4L122.8,85.3L125.1,84.5L126.6,86.1L129.3,87.4L131.8,88.7L128.9,94.2L125.4,93.9L125.3,95.9L124.2,98.9L122.9,100.5L116.4,101.9Z" fill="#e8e8e8" stroke="#999" stroke-width="1"/>
  <path d="M161.4,64.5L162.6,62.1L163,58.6L164.9,57.3L166.2,55.6L168.5,52.5L172.7,48.8L174.7,48.5L176.6,50L178.6,51.3L177,52.6L177,55L176.4,57.4L177.5,60.1L175.7,61.6L173.7,63.5L174.1,66.4L172.1,66.6L169.4,65.9L167.3,65.4L164.5,66L162.2,65.7L161.4,64.5Z" fill="#e8e8e8" stroke="#999" stroke-width="1"/>
  <path d="M73.6,158.2L81.3,154.7L90.5,150.8L93.4,149.6L98,148.2L101.9,148L104.6,147.6L107.5,146.6L110,144.7L111.8,143.4L113.4,142L116.3,139.1L118.1,138L120.1,136.7L123.6,135.4L125.7,135.4L127.6,133.8L128.7,132L130.9,131.6L132.3,134L133.8,135.5L135.2,137.2L137,138.7L139.6,138.1L144.4,137.3L146.8,138.2L148.4,140L149.1,142.7L150.8,144.3L152.4,142L153.9,143.5L155.4,145L157.9,149.8L158.9,152.6L152,153.8L151.1,156.8L151.5,158.8L149.8,161.5L148.1,163.5L145.4,165.5L139.3,169L135.6,169.7L133.2,170.8L131.2,169.8L127.9,170.2L125.5,169.8L123.4,170.8L120.8,169.2L113.6,179.2L111.7,177.6L108.6,179.5L106,179.9L104.5,176.8L102.6,175.8L100.3,173.3L99.2,171L94.9,167.3L92.9,166.6L90.2,167.4L88.5,169.5L85.8,171L84.2,168.3L81.9,167.8L79.8,167.9L78.5,159.2L76,159.7L74.1,158.6L73.6,158.2Z" fill="#e8e8e8" stroke="#999" stroke-width="1"/>
  <path d="M98.6,88.4L101.5,86L103,84.6L105.4,84.5L103.2,82.5L101.5,80.6L104.4,80.3L106.3,81L108.5,82.6L110.6,81.8L112.8,81.3L115.2,79.7L117.2,81.2L119.4,80.2L119.8,83.1L121.8,84.8L120.9,87.6L118.8,88.4L118.2,90.5L118.1,93.2L116.2,95.9L115.5,97.8L113.4,98.3L111.4,97.3L110.1,95L107.8,94.7L105.5,93.6L106.6,91.5L101.3,89.5L99.1,89.1L98.6,88.4Z" fill="#e8e8e8" stroke="#999" stroke-width="1"/>
  <path d="M161.4,64.5L158.6,67.8L155.6,68.9L152.7,70.9L150.5,71.4L150.4,73.6L148.5,72.4L147.8,70.1L148.1,65.7L146.5,63.5L146.6,60.9L147.1,56.4L145.9,54.4L147.6,52.8L149.7,51.7L152.3,54.1L153.8,52.7L155.7,51.9L157.6,51.2L159.8,50.6L160.1,47.5L159,45.7L158.5,41.6L160.3,39.9L164.1,38.8L167,38.5L169,39.4L170.5,40.9L172.3,42.5L171.4,45.6L172.8,47.1L168.5,52.5L167,54.9L164.9,57.3L163,58.6L162.6,62.1L161.4,64.5Z" fill="#e8e8e8" stroke="#999" stroke-width="1"/>
  <path d="M151.5,72.5L155.6,68.9L158.6,67.8L161.4,64.5L163,66.6L165.4,65.7L169.4,65.9L172.1,66.6L174.1,66.4L175.1,68.5L174.6,70.9L172.4,71.8L170.7,77.2L172.1,79.5L174.5,79.6L175.5,83.3L175.6,85.3L172.9,89L171.2,90.3L170.5,92.4L169.5,94.3L166.6,94L163.7,93.4L162.6,91.5L159.6,91.4L157.8,89.8L156.1,88.5L154.2,86.3L155.4,84.1L156.2,82.1L157.5,80.5L158.8,77.6L155.1,75L153.1,73.9L151.5,72.5Z" fill="#e8e8e8" stroke="#999" stroke-width="1"/>
  <path d="M128.9,94.2L131.1,97.9L132.7,99.2L136.1,99.5L137.7,101.3L137.6,103.6L138.6,106.3L138.5,108.6L135.7,109L134,110.9L130.9,115L132.7,116.1L131.1,117.4L130.6,119.4L128,119.6L124.4,121.2L122.5,118.7L121,115.7L120.1,113.6L121.3,111.3L121.3,109.3L124.3,106.5L125.1,104.6L125,102.5L123.7,100.8L124.1,97.5L125.5,95.8L127.5,93.3L128.9,94.2Z" fill="#e8e8e8" stroke="#999" stroke-width="1"/>
  <path d="M136.1,99.5L137.6,98.1L139.6,97.8L141.6,98.5L147.8,98.1L147.7,96L149.7,94.8L151.5,93.8L153.1,95.1L155.2,96.2L157.3,96.8L158.9,98.3L158.9,101.6L161.2,102.9L161.4,105L161.6,107.1L160,109.2L160.3,111.2L159.2,113.2L157.4,112.1L154.9,111.9L152.8,111.5L151.8,108.9L151.7,106.9L149.6,107.4L147.3,108.4L145.7,109.8L142.6,111.4L140.7,113.3L137.8,114.6L135.9,115.8L132.5,116.5L130.9,115.2L133,111.8L134.7,109.9L138.5,108.6L138.6,106.3L137.6,103.6L137.7,101.3L136.1,99.5Z" fill="#e8e8e8" stroke="#999" stroke-width="1"/>
  <path d="M72.9,157.3L67,152.7L66.3,148.1L64.9,145.4L62.7,143.5L57.6,140.7L56,138L53.2,136.3L51.9,134.6L48.4,128L46.8,125.4L45,122.5L41.9,119.5L41.1,116.7L43.2,114.9L47.5,112L50.1,112L52.7,112.6L55.4,110.8L57.9,108.4L59.1,106.3L61.1,105.5L65,103.2L67.2,101.3L69.6,98.1L70.3,96.1L73.2,96.5L79.4,97.9L81.6,98.3L84.4,98.5L85.8,97L90.5,92.3L93.1,90.4L94.9,89.2L97.1,87.8L97.7,90L98.5,91.9L99.3,94.2L98.8,96.4L100,98.4L97.1,100.7L97.8,102.7L100.3,104.2L101.9,105.7L104,106.4L105.6,104.7L107.3,106.1L106.3,108.6L106.5,111.9L108.7,112.9L107.1,115.2L108.5,116.7L103.7,118L104.2,120.7L102.2,122.7L100.2,122.7L96.7,122.7L94.4,121.5L92.4,121.2L90.8,123.3L87.5,129.4L84.9,130.9L81.5,131.1L80.8,133.4L81.3,136.4L82,138.6L84.1,141.3L87.2,145.1L90.5,150.8L81.3,154.7L72.9,157.3Z" fill="#e8e8e8" stroke="#999" stroke-width="1"/>
  <path d="M108.3,117.8L107.1,115.2L108.7,112.9L106.5,111.9L106.8,109.4L108.5,107.6L110.9,106.5L113.2,104.2L115.5,103.3L122.3,101L125,102.1L125.1,104.6L124.3,106.5L122.3,109.2L120.5,110.8L121.2,112.7L120.2,114.9L121.8,117.1L122.9,120.1L120.9,121.8L118.4,121.5L116.4,122.1L114.2,121.5L110.9,122.3L110.1,120.3L108.9,118L108.3,117.8Z" fill="#e8e8e8" stroke="#999" stroke-width="1"/>
  <path d="M108.3,117.8L110.1,120.3L110.9,122.3L113.3,121L114.9,122.5L117.1,122.4L119.4,122.3L122.6,121.8L126.6,120.6L129.9,118.9L132.7,119.7L134.9,119.5L136.1,121.2L137.2,123.1L139.7,127.5L139.3,129.5L139.1,131.8L138.7,133.8L137.9,136.1L140.3,136.5L138.8,138.2L136.4,138.5L134.9,136.9L133.7,135.3L132.2,132.8L129.8,131.8L127.7,133.2L125.6,135.1L123.6,135.4L121,136.6L118.9,137.2L116.3,138L113.4,142L111.8,143.4L110,144.7L107.5,146.6L104.6,147.6L101.9,148L98,148.2L93.4,149.6L90.5,150.8L88,144.3L84.1,141.3L82.5,139.6L81.3,136.4L80.8,133.4L81.5,131.1L84.7,129.9L87.5,129.4L91.3,124L92.4,121.2L94.6,121.3L96.7,122.7L99.7,121.4L102.2,122.7L104.2,121.4L103.8,118.8L106.8,117.7L108.3,117.8Z" fill="#e8e8e8" stroke="#999" stroke-width="1"/>
  <path d="M141.1,137.8L139.4,136L137.2,135L138,132.8L139.9,131.3L139.6,129.3L138.3,124.5L137.1,122.7L134.9,119.5L132.7,119.7L131.1,117.4L134.2,116.1L137.8,114.6L139.8,113.7L141.6,112.5L144.6,110.7L146.8,108.4L149.3,107.4L150.8,105.9L152.2,108.1L152.9,110.7L154.9,111.9L157.4,112.1L159.2,113.2L160.3,111.2L160,109.2L161.1,107.3L161.4,105L161.2,102.9L158.9,101.6L158,99.3L157.6,97.3L157.4,94.9L158.5,91L161.5,91L163.7,93.4L166.6,94L169.5,94.3L170.5,92.4L172.4,94.3L172.4,97.1L172.4,99.5L174.9,100L176.6,98.7L180.4,97.3L183.1,95.4L186.1,92.7L188.4,92.6L190.4,93L191.3,95L192.2,97.4L191,99.6L190.5,101.9L193,103L193.5,105L193.6,107.9L195.7,109.3L194,110.7L191.7,109.6L189.5,109.1L187.5,109.1L185.6,110.6L183.4,111.6L181.1,113L178.1,113.2L175.4,113L173.2,111.9L171,112.2L169.1,114.2L171.1,117.2L169.8,119.6L171.9,120.2L173.1,123L174.4,125L175.3,127.1L174.6,129.9L175,132.9L172.6,134.8L169.9,135.4L167.8,136.3L166.7,138.3L164.5,139.2L163.1,141.5L161.2,143.2L159.4,144.1L155.4,145L153.9,143.5L152.4,142L150.8,144.3L148.7,143.3L149.4,140.8L148.2,139.1L145.6,137.5L141.4,137.9L141.1,137.8Z" fill="#e8e8e8" stroke="#999" stroke-width="1"/>
</svg>