<svg xmlns="http://www.w3.org/2000/svg" viewBox="0 0 100 100" fill="#1a2234">
  <path d="M50 5C25.1 5 5 25.1 5 50s20.1 45 45 45 45-20.1 45-45S74.9 5 50 5zm0 6c21.5 0 39 17.5 39 39S71.5 89 50 89 11 71.5 11 50s17.5-39 39-39z" opacity=".15"/>
  <path d="M50 18c-3.5 0-6.8.6-9.9 1.6C47.3 23 52 30.8 52 39.8c0 12.5-10.1 22.7-22.7 22.7-2.8 0-5.4-.5-7.9-1.4C22.8 69.4 35.3 76 49.5 76c17.4 0 31.5-14.1 31.5-31.5 0-14.7-10-27-23.6-30.6-2.4-.6-4.9-1-7.4-1z"/>
  <path d="M27.3 26.5c-6.2 6.2-9.5 14.2-9.8 22.3 2.8 1.6 6 2.5 9.5 2.5 10.5 0 19-8.5 19-19 0-4.1-1.3-7.9-3.5-11-4.8-1.2-10.1-.1-15.2 5.2z"/>
</svg>
